<svg width="300" height="50" viewBox="0 0 300 50" fill="none" xmlns="http://www.w3.org/2000/svg">
<g clip-path="url(#clip0_2_2)">
<rect width="300" height="50" fill="white"/>
<rect width="300" height="50" fill="black"/>
<path d="M21.116 23.484C20.456 23.484 19.8767 23.6233 19.378 23.902C18.8793 24.1807 18.4613 24.5473 18.124 25.002C17.8013 25.4567 17.552 25.9773 17.376 26.564C17.2147 27.136 17.134 27.7227 17.134 28.324C17.134 28.9253 17.2147 29.5193 17.376 30.106C17.552 30.678 17.8013 31.1913 18.124 31.646C18.4613 32.1007 18.8793 32.4673 19.378 32.746C19.8767 33.0247 20.456 33.164 21.116 33.164C21.776 33.164 22.3553 33.0247 22.854 32.746C23.3527 32.4673 23.7633 32.1007 24.086 31.646C24.4233 31.1913 24.6727 30.678 24.834 30.106C25.01 29.5193 25.098 28.9253 25.098 28.324C25.098 27.7227 25.01 27.136 24.834 26.564C24.6727 25.9773 24.4233 25.4567 24.086 25.002C23.7633 24.5473 23.3527 24.1807 22.854 23.902C22.3553 23.6233 21.776 23.484 21.116 23.484ZM21.116 22.318C21.9813 22.318 22.744 22.4793 23.404 22.802C24.0787 23.1247 24.6433 23.5573 25.098 24.1C25.5527 24.6427 25.8973 25.2807 26.132 26.014C26.3667 26.7327 26.484 27.5027 26.484 28.324C26.484 29.1453 26.3667 29.9227 26.132 30.656C25.8973 31.3747 25.5527 32.0053 25.098 32.548C24.6433 33.0907 24.0787 33.5233 23.404 33.846C22.744 34.154 21.9813 34.308 21.116 34.308C20.2507 34.308 19.4807 34.154 18.806 33.846C18.146 33.5233 17.5887 33.0907 17.134 32.548C16.6793 32.0053 16.3347 31.3747 16.1 30.656C15.8653 29.9227 15.748 29.1453 15.748 28.324C15.748 27.5027 15.8653 26.7327 16.1 26.014C16.3347 25.2807 16.6793 24.6427 17.134 24.1C17.5887 23.5573 18.146 23.1247 18.806 22.802C19.4807 22.4793 20.2507 22.318 21.116 22.318ZM34.9026 25.97C34.8879 25.5447 34.7999 25.178 34.6386 24.87C34.4773 24.5473 34.2573 24.2833 33.9786 24.078C33.7146 23.8727 33.4066 23.726 33.0546 23.638C32.7026 23.5353 32.3286 23.484 31.9326 23.484C31.6246 23.484 31.3093 23.5207 30.9866 23.594C30.6786 23.6527 30.3926 23.7627 30.1286 23.924C29.8646 24.0707 29.6519 24.2687 29.4906 24.518C29.3293 24.7673 29.2486 25.0753 29.2486 25.442C29.2486 25.75 29.3219 26.014 29.4686 26.234C29.6299 26.4393 29.8279 26.6153 30.0626 26.762C30.2973 26.9087 30.5539 27.0333 30.8326 27.136C31.1113 27.224 31.3679 27.2973 31.6026 27.356L33.4506 27.774C33.8466 27.8327 34.2353 27.9427 34.6166 28.104C35.0126 28.2507 35.3573 28.4487 35.6506 28.698C35.9586 28.9473 36.2079 29.2553 36.3986 29.622C36.5893 29.9887 36.6846 30.4213 36.6846 30.92C36.6846 31.536 36.5453 32.064 36.2666 32.504C35.9879 32.9293 35.6286 33.2813 35.1886 33.56C34.7633 33.824 34.2793 34.0147 33.7366 34.132C33.1939 34.2493 32.6586 34.308 32.1306 34.308C30.7959 34.308 29.7106 33.9927 28.8746 33.362C28.0533 32.7313 27.5839 31.7193 27.4666 30.326H28.8526C28.9113 31.2647 29.2486 31.976 29.8646 32.46C30.4953 32.9293 31.2726 33.164 32.1966 33.164C32.5339 33.164 32.8786 33.1273 33.2306 33.054C33.5973 32.9807 33.9346 32.856 34.2426 32.68C34.5506 32.504 34.7999 32.284 34.9906 32.02C35.1959 31.7413 35.2986 31.404 35.2986 31.008C35.2986 30.6707 35.2253 30.392 35.0786 30.172C34.9466 29.9373 34.7633 29.7467 34.5286 29.6C34.2939 29.4387 34.0226 29.3067 33.7146 29.204C33.4213 29.1013 33.1206 29.0133 32.8126 28.94L31.0306 28.544C30.5759 28.4267 30.1579 28.2947 29.7766 28.148C29.3953 27.9867 29.0579 27.796 28.7646 27.576C28.4859 27.3413 28.2659 27.0627 28.1046 26.74C27.9433 26.4027 27.8626 25.992 27.8626 25.508C27.8626 24.936 27.9873 24.4447 28.2366 24.034C28.5006 23.6233 28.8379 23.2933 29.2486 23.044C29.6593 22.7947 30.1139 22.6113 30.6126 22.494C31.1259 22.3767 31.6319 22.318 32.1306 22.318C32.7026 22.318 33.2306 22.3913 33.7146 22.538C34.2133 22.6847 34.6459 22.912 35.0126 23.22C35.3939 23.528 35.6946 23.9093 35.9146 24.364C36.1346 24.8187 36.2593 25.354 36.2886 25.97H34.9026ZM36.9804 22.648H38.4544L42.1944 32.328L45.6924 22.648H47.0784L42.1504 35.716C41.9451 36.2 41.7544 36.596 41.5784 36.904C41.4024 37.2267 41.2044 37.476 40.9844 37.652C40.7791 37.8427 40.5297 37.9747 40.2364 38.048C39.9577 38.136 39.5984 38.18 39.1584 38.18C38.8797 38.1653 38.6597 38.1507 38.4984 38.136C38.3517 38.136 38.2197 38.114 38.1024 38.07V36.904C38.2637 36.9333 38.4177 36.9553 38.5644 36.97C38.7257 36.9993 38.8871 37.014 39.0484 37.014C39.3564 37.014 39.6057 36.97 39.7964 36.882C40.0017 36.794 40.1777 36.6693 40.3244 36.508C40.4711 36.3613 40.5957 36.178 40.6984 35.958C40.8011 35.738 40.9111 35.496 41.0284 35.232L41.5124 33.956L36.9804 22.648ZM52.796 23.484C52.136 23.484 51.5567 23.6233 51.058 23.902C50.5593 24.1807 50.1413 24.5473 49.804 25.002C49.4813 25.4567 49.232 25.9773 49.056 26.564C48.8947 27.136 48.814 27.7227 48.814 28.324C48.814 28.9253 48.8947 29.5193 49.056 30.106C49.232 30.678 49.4813 31.1913 49.804 31.646C50.1413 32.1007 50.5593 32.4673 51.058 32.746C51.5567 33.0247 52.136 33.164 52.796 33.164C53.456 33.164 54.0353 33.0247 54.534 32.746C55.0327 32.4673 55.4433 32.1007 55.766 31.646C56.1033 31.1913 56.3527 30.678 56.514 30.106C56.69 29.5193 56.778 28.9253 56.778 28.324C56.778 27.7227 56.69 27.136 56.514 26.564C56.3527 25.9773 56.1033 25.4567 55.766 25.002C55.4433 24.5473 55.0327 24.1807 54.534 23.902C54.0353 23.6233 53.456 23.484 52.796 23.484ZM52.796 22.318C53.6613 22.318 54.424 22.4793 55.084 22.802C55.7587 23.1247 56.3233 23.5573 56.778 24.1C57.2327 24.6427 57.5773 25.2807 57.812 26.014C58.0467 26.7327 58.164 27.5027 58.164 28.324C58.164 29.1453 58.0467 29.9227 57.812 30.656C57.5773 31.3747 57.2327 32.0053 56.778 32.548C56.3233 33.0907 55.7587 33.5233 55.084 33.846C54.424 34.154 53.6613 34.308 52.796 34.308C51.9307 34.308 51.1607 34.154 50.486 33.846C49.826 33.5233 49.2687 33.0907 48.814 32.548C48.3593 32.0053 48.0147 31.3747 47.78 30.656C47.5453 29.9227 47.428 29.1453 47.428 28.324C47.428 27.5027 47.5453 26.7327 47.78 26.014C48.0147 25.2807 48.3593 24.6427 48.814 24.1C49.2687 23.5573 49.826 23.1247 50.486 22.802C51.1607 22.4793 51.9307 22.318 52.796 22.318ZM58.5086 22.648H59.9826L63.7226 32.328L67.2206 22.648H68.6066L63.6786 35.716C63.4733 36.2 63.2826 36.596 63.1066 36.904C62.9306 37.2267 62.7326 37.476 62.5126 37.652C62.3073 37.8427 62.0579 37.9747 61.7646 38.048C61.4859 38.136 61.1266 38.18 60.6866 38.18C60.4079 38.1653 60.1879 38.1507 60.0266 38.136C59.8799 38.136 59.7479 38.114 59.6306 38.07V36.904C59.7919 36.9333 59.9459 36.9553 60.0926 36.97C60.2539 36.9993 60.4153 37.014 60.5766 37.014C60.8846 37.014 61.1339 36.97 61.3246 36.882C61.5299 36.794 61.7059 36.6693 61.8526 36.508C61.9993 36.3613 62.1239 36.178 62.2266 35.958C62.3293 35.738 62.4393 35.496 62.5566 35.232L63.0406 33.956L58.5086 22.648ZM78.7242 34H77.4482V31.954H77.4042C77.0375 32.7167 76.5022 33.3033 75.7982 33.714C75.1089 34.11 74.3389 34.308 73.4882 34.308C72.7695 34.308 72.1535 34.2053 71.6402 34C71.1415 33.8093 70.7309 33.5307 70.4082 33.164C70.1002 32.7973 69.8729 32.35 69.7262 31.822C69.5795 31.294 69.5062 30.6927 69.5062 30.018V22.648H70.8922V30.04C70.9215 31.0667 71.1562 31.844 71.5962 32.372C72.0509 32.9 72.8282 33.164 73.9282 33.164C74.5295 33.164 75.0429 33.0393 75.4682 32.79C75.8935 32.526 76.2455 32.1813 76.5242 31.756C76.8029 31.3307 77.0082 30.8467 77.1402 30.304C77.2722 29.7467 77.3382 29.182 77.3382 28.61V22.648H78.7242V34ZM81.7186 34V31.668H83.5666V34H81.7186ZM94.5957 26.212C94.405 25.3613 94.053 24.694 93.5397 24.21C93.0263 23.726 92.3077 23.484 91.3837 23.484C90.7237 23.484 90.1443 23.6233 89.6457 23.902C89.147 24.1807 88.729 24.5473 88.3917 25.002C88.069 25.4567 87.8197 25.9773 87.6437 26.564C87.4823 27.136 87.4017 27.7227 87.4017 28.324C87.4017 28.9253 87.4823 29.5193 87.6437 30.106C87.8197 30.678 88.069 31.1913 88.3917 31.646C88.729 32.1007 89.147 32.4673 89.6457 32.746C90.1443 33.0247 90.7237 33.164 91.3837 33.164C91.809 33.164 92.2123 33.0833 92.5937 32.922C92.975 32.7607 93.3123 32.5407 93.6057 32.262C93.899 31.9687 94.141 31.624 94.3317 31.228C94.5223 30.832 94.6397 30.3993 94.6837 29.93H96.0697C95.879 31.3087 95.373 32.3867 94.5517 33.164C93.7303 33.9267 92.6743 34.308 91.3837 34.308C90.5183 34.308 89.7483 34.154 89.0737 33.846C88.4137 33.5233 87.8563 33.0907 87.4017 32.548C86.947 32.0053 86.6023 31.3747 86.3677 30.656C86.133 29.9227 86.0157 29.1453 86.0157 28.324C86.0157 27.5027 86.133 26.7327 86.3677 26.014C86.6023 25.2807 86.947 24.6427 87.4017 24.1C87.8563 23.5573 88.4137 23.1247 89.0737 22.802C89.7483 22.4793 90.5183 22.318 91.3837 22.318C92.601 22.318 93.6277 22.6407 94.4637 23.286C95.3143 23.9313 95.8203 24.9067 95.9817 26.212H94.5957ZM102.352 23.484C101.692 23.484 101.113 23.6233 100.614 23.902C100.115 24.1807 99.6972 24.5473 99.3599 25.002C99.0372 25.4567 98.7879 25.9773 98.6119 26.564C98.4505 27.136 98.3699 27.7227 98.3699 28.324C98.3699 28.9253 98.4505 29.5193 98.6119 30.106C98.7879 30.678 99.0372 31.1913 99.3599 31.646C99.6972 32.1007 100.115 32.4673 100.614 32.746C101.113 33.0247 101.692 33.164 102.352 33.164C103.012 33.164 103.591 33.0247 104.09 32.746C104.589 32.4673 104.999 32.1007 105.322 31.646C105.659 31.1913 105.909 30.678 106.07 30.106C106.246 29.5193 106.334 28.9253 106.334 28.324C106.334 27.7227 106.246 27.136 106.07 26.564C105.909 25.9773 105.659 25.4567 105.322 25.002C104.999 24.5473 104.589 24.1807 104.09 23.902C103.591 23.6233 103.012 23.484 102.352 23.484ZM102.352 22.318C103.217 22.318 103.98 22.4793 104.64 22.802C105.315 23.1247 105.879 23.5573 106.334 24.1C106.789 24.6427 107.133 25.2807 107.368 26.014C107.603 26.7327 107.72 27.5027 107.72 28.324C107.72 29.1453 107.603 29.9227 107.368 30.656C107.133 31.3747 106.789 32.0053 106.334 32.548C105.879 33.0907 105.315 33.5233 104.64 33.846C103.98 34.154 103.217 34.308 102.352 34.308C101.487 34.308 100.717 34.154 100.042 33.846C99.3819 33.5233 98.8245 33.0907 98.3699 32.548C97.9152 32.0053 97.5705 31.3747 97.3359 30.656C97.1012 29.9227 96.9839 29.1453 96.9839 28.324C96.9839 27.5027 97.1012 26.7327 97.3359 26.014C97.5705 25.2807 97.9152 24.6427 98.3699 24.1C98.8245 23.5573 99.3819 23.1247 100.042 22.802C100.717 22.4793 101.487 22.318 102.352 22.318ZM109.34 22.648H110.616V24.562H110.682C111.049 23.858 111.526 23.308 112.112 22.912C112.714 22.516 113.476 22.318 114.4 22.318C115.148 22.318 115.823 22.5013 116.424 22.868C117.04 23.2347 117.451 23.792 117.656 24.54C117.994 23.792 118.492 23.2347 119.152 22.868C119.812 22.5013 120.516 22.318 121.264 22.318C123.772 22.318 125.026 23.6453 125.026 26.3V34H123.64V26.366C123.64 25.4273 123.442 24.716 123.046 24.232C122.65 23.7333 121.954 23.484 120.956 23.484C120.355 23.484 119.856 23.6013 119.46 23.836C119.064 24.056 118.749 24.3567 118.514 24.738C118.28 25.1193 118.111 25.5593 118.008 26.058C117.92 26.542 117.876 27.048 117.876 27.576V34H116.49V26.3C116.49 25.9187 116.446 25.5593 116.358 25.222C116.285 24.87 116.153 24.5693 115.962 24.32C115.786 24.056 115.544 23.8507 115.236 23.704C114.928 23.5573 114.554 23.484 114.114 23.484C113.528 23.484 113.014 23.594 112.574 23.814C112.149 24.0193 111.797 24.3127 111.518 24.694C111.254 25.0607 111.056 25.5007 110.924 26.014C110.792 26.5127 110.726 27.0627 110.726 27.664V34H109.34V22.648ZM132.023 17.918H133.629L127.117 34.352H125.533L132.023 17.918ZM142.319 28.324C142.319 27.84 142.267 27.378 142.165 26.938C142.062 26.498 141.901 26.1093 141.681 25.772C141.461 25.4347 141.182 25.1707 140.845 24.98C140.522 24.7747 140.126 24.672 139.657 24.672C139.202 24.672 138.806 24.7747 138.469 24.98C138.131 25.1707 137.853 25.4347 137.633 25.772C137.413 26.1093 137.251 26.498 137.149 26.938C137.046 27.378 136.995 27.84 136.995 28.324C136.995 28.7933 137.046 29.248 137.149 29.688C137.251 30.128 137.413 30.5167 137.633 30.854C137.853 31.1913 138.131 31.4627 138.469 31.668C138.806 31.8587 139.202 31.954 139.657 31.954C140.126 31.954 140.522 31.8587 140.845 31.668C141.182 31.4627 141.461 31.1913 141.681 30.854C141.901 30.5167 142.062 30.128 142.165 29.688C142.267 29.248 142.319 28.7933 142.319 28.324ZM133.981 18.292H137.105V24.012H137.149C137.53 23.4253 138.043 23 138.689 22.736C139.349 22.4573 140.031 22.318 140.735 22.318C141.307 22.318 141.871 22.4353 142.429 22.67C142.986 22.9047 143.485 23.264 143.925 23.748C144.379 24.232 144.746 24.8553 145.025 25.618C145.303 26.366 145.443 27.2607 145.443 28.302C145.443 29.3433 145.303 30.2453 145.025 31.008C144.746 31.756 144.379 32.372 143.925 32.856C143.485 33.34 142.986 33.6993 142.429 33.934C141.871 34.1687 141.307 34.286 140.735 34.286C139.899 34.286 139.151 34.154 138.491 33.89C137.831 33.626 137.332 33.1787 136.995 32.548H136.951V34H133.981V18.292ZM147.078 18.292H150.202V34H147.078V18.292ZM154.994 28.324C154.994 28.7787 155.038 29.226 155.126 29.666C155.214 30.0913 155.361 30.48 155.566 30.832C155.786 31.1693 156.072 31.4407 156.424 31.646C156.776 31.8513 157.216 31.954 157.744 31.954C158.272 31.954 158.712 31.8513 159.064 31.646C159.431 31.4407 159.717 31.1693 159.922 30.832C160.142 30.48 160.296 30.0913 160.384 29.666C160.472 29.226 160.516 28.7787 160.516 28.324C160.516 27.8693 160.472 27.422 160.384 26.982C160.296 26.542 160.142 26.1533 159.922 25.816C159.717 25.4787 159.431 25.2073 159.064 25.002C158.712 24.782 158.272 24.672 157.744 24.672C157.216 24.672 156.776 24.782 156.424 25.002C156.072 25.2073 155.786 25.4787 155.566 25.816C155.361 26.1533 155.214 26.542 155.126 26.982C155.038 27.422 154.994 27.8693 154.994 28.324ZM151.87 28.324C151.87 27.4147 152.009 26.5933 152.288 25.86C152.567 25.112 152.963 24.4813 153.476 23.968C153.989 23.44 154.605 23.0367 155.324 22.758C156.043 22.4647 156.849 22.318 157.744 22.318C158.639 22.318 159.445 22.4647 160.164 22.758C160.897 23.0367 161.521 23.44 162.034 23.968C162.547 24.4813 162.943 25.112 163.222 25.86C163.501 26.5933 163.64 27.4147 163.64 28.324C163.64 29.2333 163.501 30.0547 163.222 30.788C162.943 31.5213 162.547 32.152 162.034 32.68C161.521 33.1933 160.897 33.5893 160.164 33.868C159.445 34.1467 158.639 34.286 157.744 34.286C156.849 34.286 156.043 34.1467 155.324 33.868C154.605 33.5893 153.989 33.1933 153.476 32.68C152.963 32.152 152.567 31.5213 152.288 30.788C152.009 30.0547 151.87 29.2333 151.87 28.324ZM170.533 31.316C170.973 31.316 171.362 31.228 171.699 31.052C172.036 30.876 172.315 30.6413 172.535 30.348C172.755 30.0547 172.916 29.7247 173.019 29.358C173.136 28.9767 173.195 28.5807 173.195 28.17C173.195 27.7007 173.151 27.2607 173.063 26.85C172.975 26.4247 172.828 26.0507 172.623 25.728C172.418 25.4053 172.146 25.1487 171.809 24.958C171.472 24.7673 171.046 24.672 170.533 24.672C170.093 24.672 169.712 24.76 169.389 24.936C169.081 25.112 168.817 25.354 168.597 25.662C168.392 25.9553 168.238 26.3 168.135 26.696C168.047 27.0773 168.003 27.4807 168.003 27.906C168.003 28.3167 168.04 28.7273 168.113 29.138C168.201 29.534 168.34 29.8933 168.531 30.216C168.736 30.5387 169 30.8027 169.323 31.008C169.646 31.2133 170.049 31.316 170.533 31.316ZM176.165 33.274C176.165 33.7287 176.099 34.2493 175.967 34.836C175.85 35.4227 175.586 35.9653 175.175 36.464C174.764 36.9773 174.17 37.41 173.393 37.762C172.616 38.114 171.574 38.29 170.269 38.29C169.712 38.29 169.14 38.2167 168.553 38.07C167.981 37.938 167.453 37.7253 166.969 37.432C166.5 37.1387 166.104 36.7573 165.781 36.288C165.473 35.8333 165.297 35.2833 165.253 34.638H168.355C168.502 35.2247 168.788 35.628 169.213 35.848C169.638 36.0827 170.13 36.2 170.687 36.2C171.567 36.2 172.205 35.936 172.601 35.408C173.012 34.88 173.21 34.2127 173.195 33.406V31.91H173.151C172.814 32.5113 172.33 32.9587 171.699 33.252C171.083 33.5307 170.43 33.67 169.741 33.67C168.89 33.67 168.157 33.5233 167.541 33.23C166.925 32.922 166.419 32.5113 166.023 31.998C165.627 31.47 165.334 30.8613 165.143 30.172C164.967 29.468 164.879 28.7273 164.879 27.95C164.879 27.2167 164.982 26.5127 165.187 25.838C165.407 25.1487 165.722 24.5473 166.133 24.034C166.544 23.506 167.05 23.088 167.651 22.78C168.267 22.472 168.971 22.318 169.763 22.318C170.511 22.318 171.164 22.4573 171.721 22.736C172.293 23.0147 172.77 23.484 173.151 24.144H173.195V22.626H176.165V33.274Z" fill="white"/>
</g>
<defs>
<clipPath id="clip0_2_2">
<rect width="300" height="50" fill="white"/>
</clipPath>
</defs>
</svg>
